<mxfile host="app.diagrams.net" modified="2024-03-10T14:28:52.195Z" agent="Mozilla/5.0 (Windows NT 10.0; Win64; x64) AppleWebKit/537.36 (KHTML, like Gecko) Chrome/122.0.0.0 Safari/537.36 Edg/122.0.0.0" etag="YHBDPw8vfse5spsaRhoF" version="24.0.4" type="device">
  <diagram id="mYnGRAtahifMdYKLwgAX" name="Página-1">
    <mxGraphModel dx="415" dy="209" grid="1" gridSize="10" guides="1" tooltips="1" connect="1" arrows="1" fold="1" page="1" pageScale="1" pageWidth="827" pageHeight="1169" math="0" shadow="0">
      <root>
        <mxCell id="0" />
        <mxCell id="1" parent="0" />
        <mxCell id="9V3Yyu6M8kaTkjo4kaBU-164" value="" style="rounded=0;whiteSpace=wrap;html=1;" vertex="1" parent="1">
          <mxGeometry x="470" y="642.5" width="235" height="65" as="geometry" />
        </mxCell>
        <mxCell id="9V3Yyu6M8kaTkjo4kaBU-162" value="" style="rounded=0;whiteSpace=wrap;html=1;" vertex="1" parent="1">
          <mxGeometry x="713.5" y="642.5" width="243" height="65" as="geometry" />
        </mxCell>
        <mxCell id="MozTH5Igy1OvfPUvwqz4-5" value="Client-side rendering" style="swimlane;whiteSpace=wrap;html=1;" parent="1" vertex="1">
          <mxGeometry x="20" y="20" width="200" height="290" as="geometry" />
        </mxCell>
        <mxCell id="MozTH5Igy1OvfPUvwqz4-8" value="" style="edgeStyle=orthogonalEdgeStyle;rounded=0;orthogonalLoop=1;jettySize=auto;html=1;" parent="MozTH5Igy1OvfPUvwqz4-5" source="MozTH5Igy1OvfPUvwqz4-6" target="MozTH5Igy1OvfPUvwqz4-7" edge="1">
          <mxGeometry relative="1" as="geometry" />
        </mxCell>
        <mxCell id="MozTH5Igy1OvfPUvwqz4-6" value="Download HTML" style="rounded=0;whiteSpace=wrap;html=1;" parent="MozTH5Igy1OvfPUvwqz4-5" vertex="1">
          <mxGeometry x="40" y="40" width="120" height="30" as="geometry" />
        </mxCell>
        <mxCell id="MozTH5Igy1OvfPUvwqz4-10" value="" style="edgeStyle=orthogonalEdgeStyle;rounded=0;orthogonalLoop=1;jettySize=auto;html=1;" parent="MozTH5Igy1OvfPUvwqz4-5" source="MozTH5Igy1OvfPUvwqz4-7" target="MozTH5Igy1OvfPUvwqz4-9" edge="1">
          <mxGeometry relative="1" as="geometry" />
        </mxCell>
        <mxCell id="MozTH5Igy1OvfPUvwqz4-7" value="Download JavaScript" style="rounded=0;whiteSpace=wrap;html=1;" parent="MozTH5Igy1OvfPUvwqz4-5" vertex="1">
          <mxGeometry x="40" y="90" width="120" height="30" as="geometry" />
        </mxCell>
        <mxCell id="MozTH5Igy1OvfPUvwqz4-12" value="" style="edgeStyle=orthogonalEdgeStyle;rounded=0;orthogonalLoop=1;jettySize=auto;html=1;" parent="MozTH5Igy1OvfPUvwqz4-5" source="MozTH5Igy1OvfPUvwqz4-9" target="MozTH5Igy1OvfPUvwqz4-11" edge="1">
          <mxGeometry relative="1" as="geometry" />
        </mxCell>
        <mxCell id="MozTH5Igy1OvfPUvwqz4-13" value="" style="edgeStyle=orthogonalEdgeStyle;rounded=0;orthogonalLoop=1;jettySize=auto;html=1;" parent="MozTH5Igy1OvfPUvwqz4-5" source="MozTH5Igy1OvfPUvwqz4-9" target="MozTH5Igy1OvfPUvwqz4-11" edge="1">
          <mxGeometry relative="1" as="geometry" />
        </mxCell>
        <mxCell id="MozTH5Igy1OvfPUvwqz4-9" value="Carregamento do JavaScript" style="rounded=0;whiteSpace=wrap;html=1;" parent="MozTH5Igy1OvfPUvwqz4-5" vertex="1">
          <mxGeometry x="40" y="140" width="120" height="30" as="geometry" />
        </mxCell>
        <mxCell id="MozTH5Igy1OvfPUvwqz4-15" value="" style="edgeStyle=orthogonalEdgeStyle;rounded=0;orthogonalLoop=1;jettySize=auto;html=1;" parent="MozTH5Igy1OvfPUvwqz4-5" source="MozTH5Igy1OvfPUvwqz4-11" target="MozTH5Igy1OvfPUvwqz4-14" edge="1">
          <mxGeometry relative="1" as="geometry" />
        </mxCell>
        <mxCell id="MozTH5Igy1OvfPUvwqz4-11" value="Busca dos dados da&amp;nbsp; API" style="rounded=0;whiteSpace=wrap;html=1;" parent="MozTH5Igy1OvfPUvwqz4-5" vertex="1">
          <mxGeometry x="40" y="190" width="120" height="30" as="geometry" />
        </mxCell>
        <mxCell id="MozTH5Igy1OvfPUvwqz4-14" value="Usuário visualiza o conteúdo" style="shape=parallelogram;perimeter=parallelogramPerimeter;whiteSpace=wrap;html=1;fixedSize=1;rounded=0;" parent="MozTH5Igy1OvfPUvwqz4-5" vertex="1">
          <mxGeometry x="25" y="240" width="150" height="40" as="geometry" />
        </mxCell>
        <mxCell id="MozTH5Igy1OvfPUvwqz4-16" value="Server-side rendering" style="swimlane;whiteSpace=wrap;html=1;" parent="1" vertex="1">
          <mxGeometry x="230" y="20" width="200" height="290" as="geometry" />
        </mxCell>
        <mxCell id="MozTH5Igy1OvfPUvwqz4-17" value="" style="edgeStyle=orthogonalEdgeStyle;rounded=0;orthogonalLoop=1;jettySize=auto;html=1;entryX=0.5;entryY=0;entryDx=0;entryDy=0;" parent="MozTH5Igy1OvfPUvwqz4-16" source="MozTH5Igy1OvfPUvwqz4-18" target="MozTH5Igy1OvfPUvwqz4-26" edge="1">
          <mxGeometry relative="1" as="geometry">
            <mxPoint x="100" y="90" as="targetPoint" />
          </mxGeometry>
        </mxCell>
        <mxCell id="MozTH5Igy1OvfPUvwqz4-18" value="Download HTML" style="rounded=0;whiteSpace=wrap;html=1;" parent="MozTH5Igy1OvfPUvwqz4-16" vertex="1">
          <mxGeometry x="40" y="40" width="120" height="30" as="geometry" />
        </mxCell>
        <mxCell id="MozTH5Igy1OvfPUvwqz4-26" value="Usuário visualiza o conteúdo" style="shape=parallelogram;perimeter=parallelogramPerimeter;whiteSpace=wrap;html=1;fixedSize=1;rounded=0;" parent="MozTH5Igy1OvfPUvwqz4-16" vertex="1">
          <mxGeometry x="25" y="240" width="150" height="40" as="geometry" />
        </mxCell>
        <mxCell id="3cGXUPwC5Fvx5T8O9OGd-3" value="" style="edgeStyle=orthogonalEdgeStyle;rounded=0;orthogonalLoop=1;jettySize=auto;html=1;strokeColor=default;endArrow=none;endFill=0;startArrow=classic;startFill=1;" parent="1" source="3cGXUPwC5Fvx5T8O9OGd-1" target="3cGXUPwC5Fvx5T8O9OGd-2" edge="1">
          <mxGeometry relative="1" as="geometry" />
        </mxCell>
        <mxCell id="3cGXUPwC5Fvx5T8O9OGd-19" style="edgeStyle=orthogonalEdgeStyle;rounded=0;orthogonalLoop=1;jettySize=auto;html=1;exitX=0.5;exitY=1;exitDx=0;exitDy=0;entryX=0;entryY=0.5;entryDx=0;entryDy=0;" parent="1" source="3cGXUPwC5Fvx5T8O9OGd-1" target="3cGXUPwC5Fvx5T8O9OGd-4" edge="1">
          <mxGeometry relative="1" as="geometry" />
        </mxCell>
        <mxCell id="3cGXUPwC5Fvx5T8O9OGd-21" value="Request" style="edgeLabel;html=1;align=center;verticalAlign=middle;resizable=0;points=[];fontColor=#000000;fontSize=8;" parent="3cGXUPwC5Fvx5T8O9OGd-19" vertex="1" connectable="0">
          <mxGeometry x="0.1387" y="-1" relative="1" as="geometry">
            <mxPoint x="21" y="-9" as="offset" />
          </mxGeometry>
        </mxCell>
        <mxCell id="3cGXUPwC5Fvx5T8O9OGd-1" value="" style="shape=actor;whiteSpace=wrap;html=1;" parent="1" vertex="1">
          <mxGeometry x="20" y="360" width="40" height="50" as="geometry" />
        </mxCell>
        <mxCell id="3cGXUPwC5Fvx5T8O9OGd-5" value="" style="edgeStyle=orthogonalEdgeStyle;rounded=0;orthogonalLoop=1;jettySize=auto;html=1;startArrow=classic;startFill=1;endArrow=none;endFill=0;" parent="1" source="3cGXUPwC5Fvx5T8O9OGd-2" target="3cGXUPwC5Fvx5T8O9OGd-4" edge="1">
          <mxGeometry relative="1" as="geometry" />
        </mxCell>
        <mxCell id="3cGXUPwC5Fvx5T8O9OGd-2" value="VIEW" style="whiteSpace=wrap;html=1;" parent="1" vertex="1">
          <mxGeometry x="120" y="366.25" width="120" height="37.5" as="geometry" />
        </mxCell>
        <mxCell id="3cGXUPwC5Fvx5T8O9OGd-7" value="" style="edgeStyle=orthogonalEdgeStyle;rounded=0;orthogonalLoop=1;jettySize=auto;html=1;startArrow=classic;startFill=1;endArrow=none;endFill=0;exitX=0.25;exitY=1;exitDx=0;exitDy=0;entryX=0.25;entryY=0;entryDx=0;entryDy=0;" parent="1" edge="1" target="3cGXUPwC5Fvx5T8O9OGd-6" source="3cGXUPwC5Fvx5T8O9OGd-4">
          <mxGeometry relative="1" as="geometry">
            <mxPoint x="160" y="480" as="sourcePoint" />
            <mxPoint x="150" y="545" as="targetPoint" />
          </mxGeometry>
        </mxCell>
        <mxCell id="3cGXUPwC5Fvx5T8O9OGd-4" value="CONTROLLER" style="whiteSpace=wrap;html=1;" parent="1" vertex="1">
          <mxGeometry x="120" y="430" width="120" height="40" as="geometry" />
        </mxCell>
        <mxCell id="3cGXUPwC5Fvx5T8O9OGd-6" value="MODEL" style="whiteSpace=wrap;html=1;" parent="1" vertex="1">
          <mxGeometry x="120" y="500" width="120" height="40" as="geometry" />
        </mxCell>
        <mxCell id="3cGXUPwC5Fvx5T8O9OGd-22" value="Response" style="edgeLabel;html=1;align=center;verticalAlign=middle;resizable=0;points=[];fontColor=#000000;fontSize=8;" parent="1" vertex="1" connectable="0">
          <mxGeometry x="93.00427943485118" y="377" as="geometry" />
        </mxCell>
        <mxCell id="3cGXUPwC5Fvx5T8O9OGd-23" value="Send Data" style="edgeLabel;html=1;align=center;verticalAlign=middle;resizable=0;points=[];fontColor=#000000;fontSize=8;" parent="1" vertex="1" connectable="0">
          <mxGeometry x="204.00427943485118" y="420" as="geometry" />
        </mxCell>
        <mxCell id="3cGXUPwC5Fvx5T8O9OGd-24" value="Request Data" style="edgeLabel;html=1;align=center;verticalAlign=middle;resizable=0;points=[];fontColor=#000000;fontSize=8;" parent="1" vertex="1" connectable="0">
          <mxGeometry x="240.00427943485118" y="480" as="geometry">
            <mxPoint x="4" y="7" as="offset" />
          </mxGeometry>
        </mxCell>
        <mxCell id="3cGXUPwC5Fvx5T8O9OGd-25" value="Response Data" style="edgeLabel;html=1;align=center;verticalAlign=middle;resizable=0;points=[];fontColor=#000000;fontSize=8;" parent="1" vertex="1" connectable="0">
          <mxGeometry x="110.00427943485118" y="480" as="geometry">
            <mxPoint x="4" y="7" as="offset" />
          </mxGeometry>
        </mxCell>
        <mxCell id="3cGXUPwC5Fvx5T8O9OGd-26" value="" style="edgeStyle=orthogonalEdgeStyle;rounded=0;orthogonalLoop=1;jettySize=auto;html=1;startArrow=none;startFill=0;exitX=0.75;exitY=1;exitDx=0;exitDy=0;" parent="1" edge="1" source="3cGXUPwC5Fvx5T8O9OGd-4">
          <mxGeometry relative="1" as="geometry">
            <mxPoint x="200" y="494.5" as="sourcePoint" />
            <mxPoint x="210" y="500" as="targetPoint" />
          </mxGeometry>
        </mxCell>
        <mxCell id="3cGXUPwC5Fvx5T8O9OGd-27" value="USER" style="edgeLabel;html=1;align=center;verticalAlign=middle;resizable=0;points=[];fontColor=#000000;fontSize=8;" parent="1" vertex="1" connectable="0">
          <mxGeometry x="42.004279434851185" y="398" as="geometry">
            <mxPoint x="-3" y="-1" as="offset" />
          </mxGeometry>
        </mxCell>
        <mxCell id="9V3Yyu6M8kaTkjo4kaBU-2" value="" style="shape=mxgraph.signs.tech.computer;html=1;pointerEvents=1;fillColor=#000000;strokeColor=none;verticalLabelPosition=bottom;verticalAlign=top;align=center;" vertex="1" parent="1">
          <mxGeometry x="409.99" y="390" width="50" height="49" as="geometry" />
        </mxCell>
        <mxCell id="9V3Yyu6M8kaTkjo4kaBU-4" value="" style="sketch=0;pointerEvents=1;shadow=0;dashed=0;html=1;strokeColor=none;fillColor=#505050;labelPosition=center;verticalLabelPosition=bottom;verticalAlign=top;outlineConnect=0;align=center;shape=mxgraph.office.devices.laptop;" vertex="1" parent="1">
          <mxGeometry x="356" y="453" width="58" height="34" as="geometry" />
        </mxCell>
        <mxCell id="9V3Yyu6M8kaTkjo4kaBU-6" value="" style="sketch=0;outlineConnect=0;fontColor=#232F3E;gradientColor=none;fillColor=#232F3D;strokeColor=none;dashed=0;verticalLabelPosition=bottom;verticalAlign=top;align=center;html=1;fontSize=12;fontStyle=0;aspect=fixed;pointerEvents=1;shape=mxgraph.aws4.mobile_client;" vertex="1" parent="1">
          <mxGeometry x="422.38" y="496" width="25.23" height="48" as="geometry" />
        </mxCell>
        <mxCell id="9V3Yyu6M8kaTkjo4kaBU-14" style="edgeStyle=orthogonalEdgeStyle;rounded=0;orthogonalLoop=1;jettySize=auto;html=1;exitX=0.875;exitY=0.5;exitDx=0;exitDy=0;exitPerimeter=0;" edge="1" parent="1" source="9V3Yyu6M8kaTkjo4kaBU-7" target="9V3Yyu6M8kaTkjo4kaBU-13">
          <mxGeometry relative="1" as="geometry" />
        </mxCell>
        <mxCell id="9V3Yyu6M8kaTkjo4kaBU-7" value="Internet" style="ellipse;shape=cloud;whiteSpace=wrap;html=1;align=center;" vertex="1" parent="1">
          <mxGeometry x="480" y="437" width="100" height="60" as="geometry" />
        </mxCell>
        <mxCell id="9V3Yyu6M8kaTkjo4kaBU-10" style="edgeStyle=orthogonalEdgeStyle;rounded=0;orthogonalLoop=1;jettySize=auto;html=1;" edge="1" parent="1" source="9V3Yyu6M8kaTkjo4kaBU-4">
          <mxGeometry relative="1" as="geometry">
            <mxPoint x="490" y="470" as="targetPoint" />
          </mxGeometry>
        </mxCell>
        <mxCell id="9V3Yyu6M8kaTkjo4kaBU-11" style="edgeStyle=orthogonalEdgeStyle;rounded=0;orthogonalLoop=1;jettySize=auto;html=1;entryX=0.55;entryY=0.95;entryDx=0;entryDy=0;entryPerimeter=0;" edge="1" parent="1" target="9V3Yyu6M8kaTkjo4kaBU-7">
          <mxGeometry relative="1" as="geometry">
            <mxPoint x="460" y="520" as="sourcePoint" />
            <Array as="points">
              <mxPoint x="535" y="520" />
            </Array>
          </mxGeometry>
        </mxCell>
        <mxCell id="9V3Yyu6M8kaTkjo4kaBU-12" style="edgeStyle=orthogonalEdgeStyle;rounded=0;orthogonalLoop=1;jettySize=auto;html=1;entryX=0.4;entryY=0.1;entryDx=0;entryDy=0;entryPerimeter=0;" edge="1" parent="1" target="9V3Yyu6M8kaTkjo4kaBU-7">
          <mxGeometry relative="1" as="geometry">
            <mxPoint x="470" y="415" as="sourcePoint" />
            <Array as="points">
              <mxPoint x="520" y="415" />
            </Array>
          </mxGeometry>
        </mxCell>
        <mxCell id="9V3Yyu6M8kaTkjo4kaBU-13" value="Server" style="sketch=0;outlineConnect=0;fontColor=#232F3E;gradientColor=none;fillColor=#232F3D;strokeColor=none;dashed=0;verticalLabelPosition=bottom;verticalAlign=top;align=center;html=1;fontSize=12;fontStyle=0;aspect=fixed;pointerEvents=1;shape=mxgraph.aws4.traditional_server;" vertex="1" parent="1">
          <mxGeometry x="610" y="428" width="45" height="78" as="geometry" />
        </mxCell>
        <mxCell id="9V3Yyu6M8kaTkjo4kaBU-15" value="Client" style="text;html=1;align=center;verticalAlign=middle;resizable=0;points=[];autosize=1;strokeColor=none;fillColor=none;" vertex="1" parent="1">
          <mxGeometry x="360" y="453" width="50" height="30" as="geometry" />
        </mxCell>
        <mxCell id="9V3Yyu6M8kaTkjo4kaBU-50" style="edgeStyle=orthogonalEdgeStyle;rounded=0;orthogonalLoop=1;jettySize=auto;html=1;exitX=0.091;exitY=0.011;exitDx=0;exitDy=0;endArrow=oval;endFill=1;exitPerimeter=0;" edge="1" parent="1" source="9V3Yyu6M8kaTkjo4kaBU-31">
          <mxGeometry relative="1" as="geometry">
            <mxPoint x="60" y="590" as="targetPoint" />
            <Array as="points">
              <mxPoint x="47" y="630" />
              <mxPoint x="47" y="590" />
            </Array>
          </mxGeometry>
        </mxCell>
        <mxCell id="9V3Yyu6M8kaTkjo4kaBU-51" value="&lt;font style=&quot;font-size: 9px;&quot; face=&quot;Arial&quot;&gt;Cod. Client&lt;/font&gt;" style="edgeLabel;html=1;align=center;verticalAlign=middle;resizable=0;points=[];" vertex="1" connectable="0" parent="9V3Yyu6M8kaTkjo4kaBU-50">
          <mxGeometry x="1" y="-3" relative="1" as="geometry">
            <mxPoint x="30" y="-3" as="offset" />
          </mxGeometry>
        </mxCell>
        <mxCell id="9V3Yyu6M8kaTkjo4kaBU-54" style="edgeStyle=orthogonalEdgeStyle;rounded=0;orthogonalLoop=1;jettySize=auto;html=1;exitX=0.5;exitY=0;exitDx=0;exitDy=0;endArrow=oval;endFill=0;" edge="1" parent="1" source="9V3Yyu6M8kaTkjo4kaBU-31">
          <mxGeometry relative="1" as="geometry">
            <mxPoint x="90" y="630" as="targetPoint" />
            <Array as="points">
              <mxPoint x="80" y="630" />
            </Array>
          </mxGeometry>
        </mxCell>
        <mxCell id="9V3Yyu6M8kaTkjo4kaBU-55" value="&lt;font style=&quot;font-size: 9px;&quot; face=&quot;Arial&quot;&gt;Data Cadastro&lt;/font&gt;" style="edgeLabel;html=1;align=center;verticalAlign=middle;resizable=0;points=[];" vertex="1" connectable="0" parent="9V3Yyu6M8kaTkjo4kaBU-54">
          <mxGeometry x="0.9905" relative="1" as="geometry">
            <mxPoint x="40" as="offset" />
          </mxGeometry>
        </mxCell>
        <mxCell id="9V3Yyu6M8kaTkjo4kaBU-56" style="edgeStyle=orthogonalEdgeStyle;rounded=0;orthogonalLoop=1;jettySize=auto;html=1;exitX=0.75;exitY=0;exitDx=0;exitDy=0;endArrow=oval;endFill=0;" edge="1" parent="1" source="9V3Yyu6M8kaTkjo4kaBU-31">
          <mxGeometry relative="1" as="geometry">
            <mxPoint x="110" y="650" as="targetPoint" />
            <Array as="points">
              <mxPoint x="100" y="650" />
              <mxPoint x="110" y="650" />
            </Array>
          </mxGeometry>
        </mxCell>
        <mxCell id="9V3Yyu6M8kaTkjo4kaBU-57" value="&lt;font style=&quot;font-size: 9px;&quot; face=&quot;Arial&quot;&gt;Endereço (0,n)&lt;/font&gt;" style="edgeLabel;html=1;align=center;verticalAlign=middle;resizable=0;points=[];" vertex="1" connectable="0" parent="9V3Yyu6M8kaTkjo4kaBU-56">
          <mxGeometry x="1" y="1" relative="1" as="geometry">
            <mxPoint x="41" y="-1" as="offset" />
          </mxGeometry>
        </mxCell>
        <mxCell id="9V3Yyu6M8kaTkjo4kaBU-58" style="edgeStyle=orthogonalEdgeStyle;rounded=0;orthogonalLoop=1;jettySize=auto;html=1;exitX=0.327;exitY=-0.032;exitDx=0;exitDy=0;endArrow=oval;endFill=0;exitPerimeter=0;" edge="1" parent="1" source="9V3Yyu6M8kaTkjo4kaBU-31">
          <mxGeometry relative="1" as="geometry">
            <mxPoint x="80" y="610" as="targetPoint" />
            <Array as="points">
              <mxPoint x="66" y="610" />
            </Array>
          </mxGeometry>
        </mxCell>
        <mxCell id="9V3Yyu6M8kaTkjo4kaBU-59" value="&lt;font style=&quot;font-size: 9px;&quot; face=&quot;Arial&quot;&gt;&amp;nbsp;Nome&lt;/font&gt;" style="edgeLabel;html=1;align=center;verticalAlign=middle;resizable=0;points=[];" vertex="1" connectable="0" parent="9V3Yyu6M8kaTkjo4kaBU-58">
          <mxGeometry x="0.9715" y="1" relative="1" as="geometry">
            <mxPoint x="21" as="offset" />
          </mxGeometry>
        </mxCell>
        <mxCell id="9V3Yyu6M8kaTkjo4kaBU-60" style="edgeStyle=orthogonalEdgeStyle;rounded=0;orthogonalLoop=1;jettySize=auto;html=1;endArrow=oval;endFill=1;startArrow=oval;startFill=0;" edge="1" parent="1">
          <mxGeometry relative="1" as="geometry">
            <mxPoint x="200" y="630" as="targetPoint" />
            <mxPoint x="200" y="690" as="sourcePoint" />
            <Array as="points">
              <mxPoint x="200" y="690" />
              <mxPoint x="190" y="690" />
              <mxPoint x="190" y="630" />
            </Array>
          </mxGeometry>
        </mxCell>
        <mxCell id="9V3Yyu6M8kaTkjo4kaBU-61" value="&lt;font face=&quot;Arial&quot; style=&quot;font-size: 9px;&quot;&gt;Cod. Endereço&lt;/font&gt;" style="edgeLabel;html=1;align=center;verticalAlign=middle;resizable=0;points=[];" vertex="1" connectable="0" parent="9V3Yyu6M8kaTkjo4kaBU-60">
          <mxGeometry x="1" relative="1" as="geometry">
            <mxPoint x="40" as="offset" />
          </mxGeometry>
        </mxCell>
        <mxCell id="9V3Yyu6M8kaTkjo4kaBU-62" value="&lt;font face=&quot;Arial&quot; style=&quot;font-size: 9px;&quot;&gt;Cidade&lt;/font&gt;" style="edgeLabel;html=1;align=center;verticalAlign=middle;resizable=0;points=[];" vertex="1" connectable="0" parent="9V3Yyu6M8kaTkjo4kaBU-60">
          <mxGeometry x="-1" y="-2" relative="1" as="geometry">
            <mxPoint x="20" y="2" as="offset" />
          </mxGeometry>
        </mxCell>
        <mxCell id="9V3Yyu6M8kaTkjo4kaBU-31" value="Cliente" style="rounded=0;whiteSpace=wrap;html=1;" vertex="1" parent="1">
          <mxGeometry x="40" y="670" width="80" height="40" as="geometry" />
        </mxCell>
        <mxCell id="9V3Yyu6M8kaTkjo4kaBU-63" value="" style="edgeStyle=segmentEdgeStyle;endArrow=oval;html=1;curved=0;rounded=0;endSize=6;startSize=6;endFill=0;" edge="1" parent="1">
          <mxGeometry width="50" height="50" relative="1" as="geometry">
            <mxPoint x="190" y="646" as="sourcePoint" />
            <mxPoint x="200" y="646" as="targetPoint" />
          </mxGeometry>
        </mxCell>
        <mxCell id="9V3Yyu6M8kaTkjo4kaBU-64" value="&lt;font style=&quot;font-size: 9px;&quot; face=&quot;Arial&quot;&gt;Rua&lt;/font&gt;" style="edgeLabel;html=1;align=center;verticalAlign=middle;resizable=0;points=[];" vertex="1" connectable="0" parent="9V3Yyu6M8kaTkjo4kaBU-63">
          <mxGeometry x="0.6286" y="1" relative="1" as="geometry">
            <mxPoint x="18" as="offset" />
          </mxGeometry>
        </mxCell>
        <mxCell id="9V3Yyu6M8kaTkjo4kaBU-65" value="" style="edgeStyle=segmentEdgeStyle;endArrow=oval;html=1;curved=0;rounded=0;endSize=6;startSize=6;endFill=0;" edge="1" parent="1">
          <mxGeometry width="50" height="50" relative="1" as="geometry">
            <mxPoint x="190" y="660" as="sourcePoint" />
            <mxPoint x="200" y="660" as="targetPoint" />
          </mxGeometry>
        </mxCell>
        <mxCell id="9V3Yyu6M8kaTkjo4kaBU-66" value="&lt;font style=&quot;font-size: 9px;&quot; face=&quot;Arial&quot;&gt;Número&lt;/font&gt;" style="edgeLabel;html=1;align=center;verticalAlign=middle;resizable=0;points=[];" vertex="1" connectable="0" parent="9V3Yyu6M8kaTkjo4kaBU-65">
          <mxGeometry x="0.6286" y="1" relative="1" as="geometry">
            <mxPoint x="25" as="offset" />
          </mxGeometry>
        </mxCell>
        <mxCell id="9V3Yyu6M8kaTkjo4kaBU-67" value="" style="edgeStyle=segmentEdgeStyle;endArrow=oval;html=1;curved=0;rounded=0;endSize=6;startSize=6;endFill=0;" edge="1" parent="1">
          <mxGeometry width="50" height="50" relative="1" as="geometry">
            <mxPoint x="190" y="674" as="sourcePoint" />
            <mxPoint x="200" y="674" as="targetPoint" />
          </mxGeometry>
        </mxCell>
        <mxCell id="9V3Yyu6M8kaTkjo4kaBU-68" value="&lt;font style=&quot;font-size: 9px;&quot; face=&quot;Arial&quot;&gt;Bairr&lt;/font&gt;&lt;span style=&quot;font-size: 9px; font-family: Arial;&quot;&gt;o&lt;/span&gt;" style="edgeLabel;html=1;align=center;verticalAlign=middle;resizable=0;points=[];" vertex="1" connectable="0" parent="9V3Yyu6M8kaTkjo4kaBU-67">
          <mxGeometry x="0.6286" y="1" relative="1" as="geometry">
            <mxPoint x="22" as="offset" />
          </mxGeometry>
        </mxCell>
        <mxCell id="9V3Yyu6M8kaTkjo4kaBU-69" value="Chave Valor" style="swimlane;whiteSpace=wrap;html=1;" vertex="1" parent="1">
          <mxGeometry x="480" y="20" width="210" height="150" as="geometry" />
        </mxCell>
        <mxCell id="9V3Yyu6M8kaTkjo4kaBU-115" value="Examplos:&lt;div&gt;Riak, Tokyo Cabinet, Redis Server,&lt;/div&gt;&lt;div&gt;Memcached, Scalaris&lt;/div&gt;" style="text;html=1;align=center;verticalAlign=middle;resizable=0;points=[];autosize=1;strokeColor=none;fillColor=none;" vertex="1" parent="9V3Yyu6M8kaTkjo4kaBU-69">
          <mxGeometry y="86.5" width="210" height="60" as="geometry" />
        </mxCell>
        <mxCell id="9V3Yyu6M8kaTkjo4kaBU-113" value="" style="sketch=0;pointerEvents=1;shadow=0;dashed=0;html=1;strokeColor=none;fillColor=#505050;labelPosition=center;verticalLabelPosition=bottom;verticalAlign=top;outlineConnect=0;align=center;shape=mxgraph.office.security.key_permissions;" vertex="1" parent="9V3Yyu6M8kaTkjo4kaBU-69">
          <mxGeometry x="92.5" y="33.5" width="25" height="53" as="geometry" />
        </mxCell>
        <mxCell id="9V3Yyu6M8kaTkjo4kaBU-80" value="Baseado em Documentos" style="swimlane;whiteSpace=wrap;html=1;" vertex="1" parent="1">
          <mxGeometry x="700" y="20" width="210" height="150" as="geometry" />
        </mxCell>
        <mxCell id="9V3Yyu6M8kaTkjo4kaBU-119" value="" style="sketch=0;pointerEvents=1;shadow=0;dashed=0;html=1;strokeColor=none;fillColor=#505050;labelPosition=center;verticalLabelPosition=bottom;verticalAlign=top;outlineConnect=0;align=center;shape=mxgraph.office.concepts.document;" vertex="1" parent="9V3Yyu6M8kaTkjo4kaBU-80">
          <mxGeometry x="87" y="37" width="40" height="47" as="geometry" />
        </mxCell>
        <mxCell id="9V3Yyu6M8kaTkjo4kaBU-120" value="Examplos:&lt;div&gt;&lt;span style=&quot;background-color: initial;&quot;&gt;MongoDB, CouchDB, OrientDB,&lt;/span&gt;&lt;br&gt;&lt;/div&gt;&lt;div&gt;&lt;span style=&quot;background-color: initial;&quot;&gt;RavenDB&lt;/span&gt;&lt;/div&gt;" style="text;html=1;align=center;verticalAlign=middle;resizable=0;points=[];autosize=1;strokeColor=none;fillColor=none;" vertex="1" parent="9V3Yyu6M8kaTkjo4kaBU-80">
          <mxGeometry x="7.5" y="84" width="190" height="60" as="geometry" />
        </mxCell>
        <mxCell id="9V3Yyu6M8kaTkjo4kaBU-91" value="Baseado em Colunas" style="swimlane;whiteSpace=wrap;html=1;" vertex="1" parent="1">
          <mxGeometry x="480" y="180" width="210" height="150" as="geometry" />
        </mxCell>
        <mxCell id="9V3Yyu6M8kaTkjo4kaBU-122" value="Examplos:&lt;div&gt;&lt;span style=&quot;background-color: initial;&quot;&gt;BigTable, HBase, Hypertable,&amp;nbsp;&lt;/span&gt;&lt;/div&gt;&lt;div&gt;&lt;span style=&quot;background-color: initial;&quot;&gt;Cassandra*&lt;/span&gt;&lt;/div&gt;" style="text;html=1;align=center;verticalAlign=middle;resizable=0;points=[];autosize=1;strokeColor=none;fillColor=none;" vertex="1" parent="9V3Yyu6M8kaTkjo4kaBU-91">
          <mxGeometry x="15" y="80" width="180" height="60" as="geometry" />
        </mxCell>
        <mxCell id="9V3Yyu6M8kaTkjo4kaBU-131" value="" style="shape=image;html=1;verticalAlign=top;verticalLabelPosition=bottom;labelBackgroundColor=#000000;imageAspect=0;aspect=fixed;image=https://cdn1.iconfinder.com/data/icons/bootstrap-vol-3/16/layout-three-columns-128.png;imageBorder=none;shadow=0;textShadow=0;" vertex="1" parent="9V3Yyu6M8kaTkjo4kaBU-91">
          <mxGeometry x="83" y="38.5" width="44" height="44" as="geometry" />
        </mxCell>
        <mxCell id="9V3Yyu6M8kaTkjo4kaBU-102" value="Baseado em Gráfos" style="swimlane;whiteSpace=wrap;html=1;" vertex="1" parent="1">
          <mxGeometry x="700" y="180" width="210" height="150" as="geometry" />
        </mxCell>
        <mxCell id="9V3Yyu6M8kaTkjo4kaBU-133" value="" style="image;aspect=fixed;html=1;points=[];align=center;fontSize=12;image=img/lib/azure2/general/Management_Groups.svg;" vertex="1" parent="9V3Yyu6M8kaTkjo4kaBU-102">
          <mxGeometry x="87.99" y="44" width="34.03" height="33" as="geometry" />
        </mxCell>
        <mxCell id="9V3Yyu6M8kaTkjo4kaBU-134" value="Examplos:&lt;div&gt;Neo4J, InfroGrid, Inifinte Graph,&lt;/div&gt;&lt;div&gt;Flock DB&lt;/div&gt;" style="text;html=1;align=center;verticalAlign=middle;resizable=0;points=[];autosize=1;strokeColor=none;fillColor=none;" vertex="1" parent="9V3Yyu6M8kaTkjo4kaBU-102">
          <mxGeometry x="10" y="84" width="190" height="60" as="geometry" />
        </mxCell>
        <mxCell id="9V3Yyu6M8kaTkjo4kaBU-142" value="" style="edgeStyle=orthogonalEdgeStyle;rounded=0;orthogonalLoop=1;jettySize=auto;html=1;" edge="1" parent="1" source="9V3Yyu6M8kaTkjo4kaBU-135" target="9V3Yyu6M8kaTkjo4kaBU-141">
          <mxGeometry relative="1" as="geometry" />
        </mxCell>
        <mxCell id="9V3Yyu6M8kaTkjo4kaBU-135" value="&lt;font style=&quot;font-size: 9px;&quot; face=&quot;Arial&quot;&gt;Code&lt;/font&gt;" style="ellipse;whiteSpace=wrap;html=1;aspect=fixed;" vertex="1" parent="1">
          <mxGeometry x="330" y="650" width="50" height="50" as="geometry" />
        </mxCell>
        <mxCell id="9V3Yyu6M8kaTkjo4kaBU-141" value="&lt;font style=&quot;font-size: 9px;&quot; face=&quot;Arial&quot;&gt;Commit&lt;/font&gt;" style="ellipse;whiteSpace=wrap;html=1;aspect=fixed;" vertex="1" parent="1">
          <mxGeometry x="409.99" y="650" width="50" height="50" as="geometry" />
        </mxCell>
        <mxCell id="9V3Yyu6M8kaTkjo4kaBU-143" value="&lt;font style=&quot;font-size: 9px;&quot; face=&quot;Arial&quot;&gt;Build&lt;/font&gt;" style="ellipse;whiteSpace=wrap;html=1;aspect=fixed;" vertex="1" parent="1">
          <mxGeometry x="490" y="650" width="50" height="50" as="geometry" />
        </mxCell>
        <mxCell id="9V3Yyu6M8kaTkjo4kaBU-145" value="&lt;font style=&quot;font-size: 9px;&quot; face=&quot;Arial&quot;&gt;Unit Test&lt;/font&gt;" style="ellipse;whiteSpace=wrap;html=1;aspect=fixed;" vertex="1" parent="1">
          <mxGeometry x="570" y="650" width="50" height="50" as="geometry" />
        </mxCell>
        <mxCell id="9V3Yyu6M8kaTkjo4kaBU-147" value="&lt;font style=&quot;font-size: 9px;&quot; face=&quot;Arial&quot;&gt;Integration&lt;/font&gt;&lt;div&gt;&lt;font style=&quot;font-size: 9px;&quot; face=&quot;Arial&quot;&gt;Tests&lt;/font&gt;&lt;/div&gt;" style="ellipse;whiteSpace=wrap;html=1;aspect=fixed;" vertex="1" parent="1">
          <mxGeometry x="650" y="650" width="50" height="50" as="geometry" />
        </mxCell>
        <mxCell id="9V3Yyu6M8kaTkjo4kaBU-149" value="&lt;font size=&quot;1&quot; face=&quot;Arial&quot;&gt;Review&lt;/font&gt;" style="ellipse;whiteSpace=wrap;html=1;aspect=fixed;" vertex="1" parent="1">
          <mxGeometry x="730" y="650" width="50" height="50" as="geometry" />
        </mxCell>
        <mxCell id="9V3Yyu6M8kaTkjo4kaBU-151" value="&lt;font size=&quot;1&quot; face=&quot;Arial&quot;&gt;Staging&lt;/font&gt;" style="ellipse;whiteSpace=wrap;html=1;aspect=fixed;" vertex="1" parent="1">
          <mxGeometry x="810" y="650" width="50" height="50" as="geometry" />
        </mxCell>
        <mxCell id="9V3Yyu6M8kaTkjo4kaBU-166" style="edgeStyle=orthogonalEdgeStyle;rounded=0;orthogonalLoop=1;jettySize=auto;html=1;exitX=1;exitY=0.5;exitDx=0;exitDy=0;entryX=1;entryY=0.5;entryDx=0;entryDy=0;" edge="1" parent="1" source="9V3Yyu6M8kaTkjo4kaBU-153" target="9V3Yyu6M8kaTkjo4kaBU-167">
          <mxGeometry relative="1" as="geometry">
            <mxPoint x="830" y="790" as="targetPoint" />
            <Array as="points">
              <mxPoint x="981" y="675" />
              <mxPoint x="981" y="785" />
            </Array>
          </mxGeometry>
        </mxCell>
        <mxCell id="9V3Yyu6M8kaTkjo4kaBU-153" value="&lt;font face=&quot;Arial&quot; style=&quot;font-size: 9px;&quot;&gt;Production&lt;/font&gt;" style="ellipse;whiteSpace=wrap;html=1;aspect=fixed;" vertex="1" parent="1">
          <mxGeometry x="890" y="650" width="50" height="50" as="geometry" />
        </mxCell>
        <mxCell id="9V3Yyu6M8kaTkjo4kaBU-156" value="" style="edgeStyle=orthogonalEdgeStyle;rounded=0;orthogonalLoop=1;jettySize=auto;html=1;" edge="1" parent="1">
          <mxGeometry relative="1" as="geometry">
            <mxPoint x="460" y="674.66" as="sourcePoint" />
            <mxPoint x="490" y="674.66" as="targetPoint" />
          </mxGeometry>
        </mxCell>
        <mxCell id="9V3Yyu6M8kaTkjo4kaBU-157" value="" style="edgeStyle=orthogonalEdgeStyle;rounded=0;orthogonalLoop=1;jettySize=auto;html=1;" edge="1" parent="1">
          <mxGeometry relative="1" as="geometry">
            <mxPoint x="540" y="674.66" as="sourcePoint" />
            <mxPoint x="570" y="674.66" as="targetPoint" />
          </mxGeometry>
        </mxCell>
        <mxCell id="9V3Yyu6M8kaTkjo4kaBU-158" value="" style="edgeStyle=orthogonalEdgeStyle;rounded=0;orthogonalLoop=1;jettySize=auto;html=1;" edge="1" parent="1">
          <mxGeometry relative="1" as="geometry">
            <mxPoint x="620" y="674.66" as="sourcePoint" />
            <mxPoint x="650" y="674.66" as="targetPoint" />
          </mxGeometry>
        </mxCell>
        <mxCell id="9V3Yyu6M8kaTkjo4kaBU-159" value="" style="edgeStyle=orthogonalEdgeStyle;rounded=0;orthogonalLoop=1;jettySize=auto;html=1;" edge="1" parent="1">
          <mxGeometry relative="1" as="geometry">
            <mxPoint x="700" y="674.66" as="sourcePoint" />
            <mxPoint x="730" y="674.66" as="targetPoint" />
          </mxGeometry>
        </mxCell>
        <mxCell id="9V3Yyu6M8kaTkjo4kaBU-160" value="" style="edgeStyle=orthogonalEdgeStyle;rounded=0;orthogonalLoop=1;jettySize=auto;html=1;" edge="1" parent="1">
          <mxGeometry relative="1" as="geometry">
            <mxPoint x="780" y="674.66" as="sourcePoint" />
            <mxPoint x="810" y="674.66" as="targetPoint" />
          </mxGeometry>
        </mxCell>
        <mxCell id="9V3Yyu6M8kaTkjo4kaBU-161" value="" style="edgeStyle=orthogonalEdgeStyle;rounded=0;orthogonalLoop=1;jettySize=auto;html=1;" edge="1" parent="1">
          <mxGeometry relative="1" as="geometry">
            <mxPoint x="860" y="674.66" as="sourcePoint" />
            <mxPoint x="890" y="674.66" as="targetPoint" />
          </mxGeometry>
        </mxCell>
        <mxCell id="9V3Yyu6M8kaTkjo4kaBU-163" value="&lt;font face=&quot;Arial&quot;&gt;CD PIPELINE&lt;/font&gt;" style="text;html=1;align=center;verticalAlign=middle;resizable=0;points=[];autosize=1;strokeColor=none;fillColor=none;" vertex="1" parent="1">
          <mxGeometry x="785" y="710" width="100" height="30" as="geometry" />
        </mxCell>
        <mxCell id="9V3Yyu6M8kaTkjo4kaBU-165" value="CI PIPELINE" style="text;html=1;align=center;verticalAlign=middle;resizable=0;points=[];autosize=1;strokeColor=none;fillColor=none;" vertex="1" parent="1">
          <mxGeometry x="550" y="707.5" width="90" height="30" as="geometry" />
        </mxCell>
        <mxCell id="9V3Yyu6M8kaTkjo4kaBU-169" value="" style="edgeStyle=orthogonalEdgeStyle;rounded=0;orthogonalLoop=1;jettySize=auto;html=1;" edge="1" parent="1" source="9V3Yyu6M8kaTkjo4kaBU-167" target="9V3Yyu6M8kaTkjo4kaBU-168">
          <mxGeometry relative="1" as="geometry" />
        </mxCell>
        <mxCell id="9V3Yyu6M8kaTkjo4kaBU-167" value="&lt;font size=&quot;1&quot; face=&quot;Arial&quot;&gt;Monitor&lt;/font&gt;" style="ellipse;whiteSpace=wrap;html=1;aspect=fixed;" vertex="1" parent="1">
          <mxGeometry x="730" y="760" width="50" height="50" as="geometry" />
        </mxCell>
        <mxCell id="9V3Yyu6M8kaTkjo4kaBU-170" style="edgeStyle=orthogonalEdgeStyle;rounded=0;orthogonalLoop=1;jettySize=auto;html=1;entryX=0.5;entryY=1;entryDx=0;entryDy=0;" edge="1" parent="1" source="9V3Yyu6M8kaTkjo4kaBU-168" target="9V3Yyu6M8kaTkjo4kaBU-135">
          <mxGeometry relative="1" as="geometry" />
        </mxCell>
        <mxCell id="9V3Yyu6M8kaTkjo4kaBU-168" value="&lt;font size=&quot;1&quot; face=&quot;Arial&quot;&gt;Plan&lt;/font&gt;" style="ellipse;whiteSpace=wrap;html=1;aspect=fixed;" vertex="1" parent="1">
          <mxGeometry x="490" y="760" width="50" height="50" as="geometry" />
        </mxCell>
        <mxCell id="9V3Yyu6M8kaTkjo4kaBU-174" value="" style="swimlane;startSize=0;" vertex="1" parent="1">
          <mxGeometry x="1140" y="35" width="470" height="235" as="geometry" />
        </mxCell>
        <mxCell id="9V3Yyu6M8kaTkjo4kaBU-181" value="&lt;font face=&quot;Arial&quot;&gt;Frontend&lt;/font&gt;" style="swimlane;whiteSpace=wrap;html=1;dashed=1;" vertex="1" parent="9V3Yyu6M8kaTkjo4kaBU-174">
          <mxGeometry x="20" y="12.5" width="120" height="80" as="geometry" />
        </mxCell>
        <mxCell id="9V3Yyu6M8kaTkjo4kaBU-183" value="&lt;font face=&quot;Arial&quot;&gt;User Login&lt;/font&gt;" style="whiteSpace=wrap;html=1;" vertex="1" parent="9V3Yyu6M8kaTkjo4kaBU-181">
          <mxGeometry x="25" y="40" width="70" height="30" as="geometry" />
        </mxCell>
        <mxCell id="9V3Yyu6M8kaTkjo4kaBU-190" value="&lt;font face=&quot;Arial&quot;&gt;Auth System&lt;/font&gt;" style="whiteSpace=wrap;html=1;" vertex="1" parent="9V3Yyu6M8kaTkjo4kaBU-174">
          <mxGeometry x="45" y="142.5" width="70" height="30" as="geometry" />
        </mxCell>
        <mxCell id="9V3Yyu6M8kaTkjo4kaBU-191" value="" style="edgeStyle=orthogonalEdgeStyle;rounded=0;orthogonalLoop=1;jettySize=auto;html=1;" edge="1" parent="9V3Yyu6M8kaTkjo4kaBU-174" source="9V3Yyu6M8kaTkjo4kaBU-183" target="9V3Yyu6M8kaTkjo4kaBU-190">
          <mxGeometry relative="1" as="geometry" />
        </mxCell>
        <mxCell id="9V3Yyu6M8kaTkjo4kaBU-194" value="&lt;font face=&quot;Arial&quot;&gt;Backend&lt;/font&gt;" style="swimlane;whiteSpace=wrap;html=1;dashed=1;" vertex="1" parent="9V3Yyu6M8kaTkjo4kaBU-174">
          <mxGeometry x="175" y="12.5" width="120" height="140" as="geometry" />
        </mxCell>
        <mxCell id="9V3Yyu6M8kaTkjo4kaBU-195" value="&lt;font face=&quot;Arial&quot;&gt;Services&lt;/font&gt;" style="whiteSpace=wrap;html=1;" vertex="1" parent="9V3Yyu6M8kaTkjo4kaBU-194">
          <mxGeometry x="23.75" y="40" width="72.5" height="30" as="geometry" />
        </mxCell>
        <mxCell id="9V3Yyu6M8kaTkjo4kaBU-210" value="" style="edgeStyle=orthogonalEdgeStyle;rounded=0;orthogonalLoop=1;jettySize=auto;html=1;" edge="1" parent="9V3Yyu6M8kaTkjo4kaBU-194" source="9V3Yyu6M8kaTkjo4kaBU-209" target="9V3Yyu6M8kaTkjo4kaBU-195">
          <mxGeometry relative="1" as="geometry" />
        </mxCell>
        <mxCell id="9V3Yyu6M8kaTkjo4kaBU-209" value="&lt;font face=&quot;Arial&quot;&gt;Admin Services&lt;/font&gt;" style="whiteSpace=wrap;html=1;" vertex="1" parent="9V3Yyu6M8kaTkjo4kaBU-194">
          <mxGeometry x="23.75" y="95" width="72.5" height="30" as="geometry" />
        </mxCell>
        <mxCell id="9V3Yyu6M8kaTkjo4kaBU-196" value="&lt;font face=&quot;Arial&quot;&gt;ORM&lt;/font&gt;" style="swimlane;whiteSpace=wrap;html=1;dashed=1;" vertex="1" parent="9V3Yyu6M8kaTkjo4kaBU-174">
          <mxGeometry x="335" y="12.5" width="120" height="80" as="geometry" />
        </mxCell>
        <mxCell id="9V3Yyu6M8kaTkjo4kaBU-197" value="&lt;font face=&quot;Arial&quot;&gt;ORM (CRUD)&lt;/font&gt;" style="whiteSpace=wrap;html=1;" vertex="1" parent="9V3Yyu6M8kaTkjo4kaBU-196">
          <mxGeometry x="25" y="35" width="70" height="40" as="geometry" />
        </mxCell>
        <mxCell id="9V3Yyu6M8kaTkjo4kaBU-198" value="Oracle DB" style="shape=datastore;whiteSpace=wrap;html=1;" vertex="1" parent="9V3Yyu6M8kaTkjo4kaBU-174">
          <mxGeometry x="372.5" y="136.25" width="45" height="42.5" as="geometry" />
        </mxCell>
        <mxCell id="9V3Yyu6M8kaTkjo4kaBU-199" style="edgeStyle=orthogonalEdgeStyle;rounded=0;orthogonalLoop=1;jettySize=auto;html=1;entryX=0.5;entryY=0;entryDx=0;entryDy=0;startArrow=classic;startFill=1;dashed=1;dashPattern=8 8;" edge="1" parent="9V3Yyu6M8kaTkjo4kaBU-174" source="9V3Yyu6M8kaTkjo4kaBU-197" target="9V3Yyu6M8kaTkjo4kaBU-198">
          <mxGeometry relative="1" as="geometry" />
        </mxCell>
        <mxCell id="9V3Yyu6M8kaTkjo4kaBU-201" style="edgeStyle=orthogonalEdgeStyle;rounded=0;orthogonalLoop=1;jettySize=auto;html=1;entryX=0;entryY=0.5;entryDx=0;entryDy=0;" edge="1" parent="9V3Yyu6M8kaTkjo4kaBU-174" source="9V3Yyu6M8kaTkjo4kaBU-195" target="9V3Yyu6M8kaTkjo4kaBU-197">
          <mxGeometry relative="1" as="geometry" />
        </mxCell>
        <mxCell id="9V3Yyu6M8kaTkjo4kaBU-202" value="&lt;font face=&quot;Arial&quot;&gt;Mongo&lt;/font&gt;&lt;div&gt;&lt;font face=&quot;Arial&quot;&gt;DB&lt;/font&gt;&lt;/div&gt;" style="shape=datastore;whiteSpace=wrap;html=1;" vertex="1" parent="9V3Yyu6M8kaTkjo4kaBU-174">
          <mxGeometry x="282" y="165" width="45" height="42.5" as="geometry" />
        </mxCell>
        <mxCell id="9V3Yyu6M8kaTkjo4kaBU-206" value="" style="edgeStyle=orthogonalEdgeStyle;rounded=0;orthogonalLoop=1;jettySize=auto;html=1;exitX=1;exitY=0.75;exitDx=0;exitDy=0;startArrow=classic;startFill=1;dashed=1;dashPattern=8 8;" edge="1" parent="9V3Yyu6M8kaTkjo4kaBU-174" source="9V3Yyu6M8kaTkjo4kaBU-195" target="9V3Yyu6M8kaTkjo4kaBU-202">
          <mxGeometry relative="1" as="geometry">
            <Array as="points">
              <mxPoint x="305" y="75.5" />
            </Array>
          </mxGeometry>
        </mxCell>
        <mxCell id="9V3Yyu6M8kaTkjo4kaBU-208" value="" style="edgeStyle=orthogonalEdgeStyle;rounded=0;orthogonalLoop=1;jettySize=auto;html=1;" edge="1" parent="9V3Yyu6M8kaTkjo4kaBU-174" source="9V3Yyu6M8kaTkjo4kaBU-183" target="9V3Yyu6M8kaTkjo4kaBU-195">
          <mxGeometry relative="1" as="geometry" />
        </mxCell>
        <mxCell id="9V3Yyu6M8kaTkjo4kaBU-211" style="edgeStyle=orthogonalEdgeStyle;rounded=0;orthogonalLoop=1;jettySize=auto;html=1;entryX=0.25;entryY=1;entryDx=0;entryDy=0;" edge="1" parent="9V3Yyu6M8kaTkjo4kaBU-174" source="9V3Yyu6M8kaTkjo4kaBU-209" target="9V3Yyu6M8kaTkjo4kaBU-197">
          <mxGeometry relative="1" as="geometry" />
        </mxCell>
        <mxCell id="9V3Yyu6M8kaTkjo4kaBU-215" style="edgeStyle=orthogonalEdgeStyle;rounded=0;orthogonalLoop=1;jettySize=auto;html=1;entryX=0.25;entryY=1;entryDx=0;entryDy=0;endArrow=none;endFill=0;startArrow=classic;startFill=1;" edge="1" parent="9V3Yyu6M8kaTkjo4kaBU-174" source="9V3Yyu6M8kaTkjo4kaBU-214" target="9V3Yyu6M8kaTkjo4kaBU-195">
          <mxGeometry relative="1" as="geometry">
            <Array as="points">
              <mxPoint x="155" y="97.5" />
              <mxPoint x="217" y="97.5" />
            </Array>
          </mxGeometry>
        </mxCell>
        <mxCell id="9V3Yyu6M8kaTkjo4kaBU-214" value="&lt;font face=&quot;Arial&quot;&gt;External Services&lt;/font&gt;" style="whiteSpace=wrap;html=1;" vertex="1" parent="9V3Yyu6M8kaTkjo4kaBU-174">
          <mxGeometry x="43.75" y="187.5" width="72.5" height="30" as="geometry" />
        </mxCell>
      </root>
    </mxGraphModel>
  </diagram>
</mxfile>
